<?xml version="1.0" encoding="UTF-8"?>
<svg id="Layer_1" data-name="Layer 1" xmlns="http://www.w3.org/2000/svg" version="1.1" viewBox="0 0 24 24">
  <defs>
    <style>
      .cls-1 {
        fill: #fff;
        stroke-width: 0px;
      }
    </style>
  </defs>
  <path class="cls-1" d="M22.15,13.47c-.99,1.14-2.28,2.29-4.59,2.29s-3.92-1.15-4.63-1.87c-.71-.72-.92-1.46-.92-1.46,0,0-.21.74-.92,1.46-.71.72-2.31,1.87-4.63,1.87s-3.6-1.15-4.59-2.29c-.99-1.14-1.36-3.02-1.36-3.02,0-.08.03-.13.07-.08.04.05.76,1.12,2.05,1.12s2.12-1,3.38-2.09c1.26-1.09,2.47-1.36,3.44-1.02.97.33,2.55,1.69,2.55,1.69,0,0,1.58-1.36,2.55-1.69.97-.33,2.18-.06,3.44,1.02,1.26,1.09,2.08,2.09,3.38,2.09s2.01-1.07,2.05-1.12c.04-.05.08,0,.07.08,0,0-.36,1.88-1.35,3.02h0Z"/>
</svg>