<?xml version="1.0" encoding="UTF-8"?>
<svg id="Layer_1" data-name="Layer 1" xmlns="http://www.w3.org/2000/svg" version="1.1" viewBox="0 0 24 24">
  <defs>
    <style>
      .cls-1 {
        fill: #fff;
        stroke-width: 0px;
      }
    </style>
  </defs>
  <path class="cls-1" d="M12,0C5.37,0,0,5.37,0,12s5.37,12,12,12,12-5.37,12-12S18.63,0,12,0ZM17.58,17.08c-.77.66-1.6,1.23-2.62,1.46-1.29.29-2.4-.04-3.32-.98-.57-.58-.89-1.29-1.11-2.05-.15-.51-.22-1.04-.33-1.57,0-.03-.01-.07-.02-.1,0-.02-.02-.03-.04-.07-.04.08-.07.12-.09.17-.16.63-.32,1.26-.48,1.88-.08.33-.22.48-.56.52-.6.06-1.08-.16-1.44-.62-.22-.29-.19-.63-.13-.96.16-1.02.48-2,.81-2.98.43-1.3.94-2.57,1.51-3.82.17-.37.43-.57.83-.57s.83.02,1.24.05c.35.04.48.3.35.62-.41.99-.81,1.98-1.21,2.96-.02.06-.04.11-.06.2.06,0,.1,0,.13-.02.96-.47,1.74-1.11,2.22-2.07.22-.43.3-.89.27-1.36-.04-.72-.51-1.2-1.26-1.3-.83-.11-1.58.09-2.27.54-.98.64-1.64,1.51-1.93,2.64-.03.11-.04.21-.05.32-.03.46-.3.66-.77.58-.46-.09-.87-.51-.97-1-.1-.51.05-.98.3-1.41.6-1.04,1.51-1.75,2.61-2.23,1.59-.69,3.22-.74,4.87-.2.41.13.78.33,1.11.61.88.73,1.16,1.66.82,2.74-.25.78-.76,1.38-1.41,1.88-.66.51-1.42.85-2.21,1.1-.13.04-.17.1-.16.23.08.95.21,1.88.64,2.75.26.52.58,1.01,1.05,1.37.88.67,1.82.69,2.81.26.14-.06.28-.14.41-.2.19-.09.4-.04.52.13.11.16.1.37-.06.5Z"/>
</svg>