<svg width="82" height="18" viewBox="0 0 82 18" fill="none" xmlns="http://www.w3.org/2000/svg">
<path fill-rule="evenodd" clip-rule="evenodd" d="M41.9164 2.09999C41.9164 3.02784 41.1534 3.78001 40.2127 3.78001C39.2717 3.78001 38.5087 3.02784 38.5087 2.09999C38.5087 1.17219 39.2717 0.420013 40.2127 0.420013C41.1534 0.420013 41.9164 1.17219 41.9164 2.09999ZM32.6985 7.21378C32.6405 7.53072 32.5482 7.89617 32.4244 8.29986C32.3001 8.70272 32.141 9.12769 31.9532 9.55878C31.7487 9.9938 31.5372 10.4003 31.3248 10.7669C31.1144 11.1295 30.9053 11.4415 30.7037 11.6941C30.5071 11.9403 30.325 12.1222 30.1623 12.2352C30.0396 12.3205 29.9718 12.3296 29.9483 12.3296C29.9374 12.3296 29.9286 12.328 29.9192 12.3238C29.8989 12.3149 29.8303 12.2691 29.8006 12.0526C29.7728 11.8543 29.7876 11.5939 29.8445 11.2782C29.9024 10.9529 29.9945 10.5845 30.1185 10.1829C30.2415 9.78216 30.4005 9.35733 30.5912 8.92025C30.7801 8.48689 30.9868 8.08242 31.2056 7.71794C31.424 7.35382 31.6367 7.04522 31.8378 6.80028C32.0331 6.56124 32.2156 6.38199 32.3803 6.26756C32.5034 6.1822 32.5711 6.17298 32.5945 6.17298C32.6054 6.17298 32.6146 6.17478 32.6228 6.17846C32.6431 6.18731 32.7116 6.23328 32.742 6.44994C32.7695 6.64844 32.7548 6.9054 32.6985 7.21378ZM24.5097 7.21382C24.4517 7.5309 24.3594 7.89636 24.2357 8.29986C24.1108 8.70479 23.9516 9.12967 23.7645 9.55878C23.5596 9.99449 23.3482 10.4011 23.1362 10.7669C22.9255 11.1298 22.7164 11.4417 22.5147 11.6941C22.3185 11.9401 22.1364 12.1221 21.9732 12.2352C21.8507 12.3205 21.7831 12.3296 21.7596 12.3296C21.7486 12.3296 21.7397 12.328 21.7303 12.3238C21.7101 12.3149 21.6417 12.2693 21.6117 12.0525C21.5841 11.8552 21.5988 11.5947 21.6555 11.2782C21.7133 10.954 21.8056 10.5856 21.9297 10.1829C22.0527 9.78198 22.2118 9.3571 22.4026 8.9202C22.592 8.48579 22.7985 8.08132 23.0166 7.71798C23.2358 7.35345 23.4484 7.04467 23.6487 6.80037C23.845 6.56073 24.0276 6.38139 24.1915 6.26751C24.3145 6.1822 24.3823 6.17298 24.4058 6.17298C24.4167 6.17298 24.4259 6.17478 24.4341 6.17846C24.4544 6.18731 24.5231 6.23328 24.5533 6.44994C24.5806 6.64789 24.566 6.90494 24.5097 7.21382ZM15.6369 7.13263C15.601 7.45413 15.531 7.82193 15.429 8.22566C15.3268 8.62787 15.1865 9.05168 15.0122 9.48536C14.8384 9.91696 14.6531 10.3229 14.4615 10.692C14.2737 11.0524 14.0838 11.3599 13.897 11.606C13.7148 11.8453 13.5437 12.0236 13.3881 12.1361C13.2729 12.2197 13.2093 12.2287 13.1873 12.2287C13.1772 12.2287 13.1688 12.227 13.1594 12.2227C13.1383 12.2137 13.0664 12.1666 13.0289 11.9466C12.9938 11.7454 12.9906 11.4857 13.019 11.1745C13.0479 10.8581 13.1141 10.4947 13.2156 10.0943C13.3171 9.69358 13.4574 9.26981 13.6326 8.83466C13.8088 8.39749 13.9941 7.99155 14.1836 7.62776C14.3705 7.26761 14.5606 6.95633 14.749 6.70273C14.9302 6.45812 15.1011 6.27698 15.2565 6.1643C15.3717 6.08106 15.4354 6.07203 15.4576 6.07203C15.468 6.07203 15.4764 6.07374 15.4846 6.07728C15.5065 6.08696 15.5819 6.13588 15.628 6.35875C15.6692 6.5567 15.6721 6.81707 15.6369 7.13263ZM40.8808 9.54419C40.7919 9.40731 40.6203 9.31881 40.4436 9.31881C40.2761 9.31881 40.1256 9.39653 40.031 9.53226C39.9226 9.68764 39.7889 9.87217 39.6334 10.0806C39.4629 10.3093 39.2787 10.5285 39.0862 10.7322C38.895 10.9349 38.7087 11.1111 38.5321 11.256C38.3497 11.4059 38.2316 11.4374 38.1649 11.4374C38.1181 11.4374 38.0311 11.4374 38.0113 11.2095C37.9909 10.9708 38.0266 10.6605 38.1175 10.287C38.2105 9.9033 38.3451 9.47739 38.5178 9.02104C38.6937 8.5566 38.8704 8.11302 39.0426 7.70265C39.2216 7.27609 39.3754 6.92147 39.5125 6.61851C39.6492 6.31695 39.7349 6.12072 39.7675 6.0349C39.8769 5.78645 39.8369 5.54159 39.6519 5.32644C39.4821 5.12924 39.2548 4.99106 38.9766 4.91561C38.7049 4.84192 38.4087 4.83766 38.0999 4.90289C37.7693 4.97293 37.5072 5.16231 37.3209 5.4654C37.1567 5.73149 36.9431 6.14954 36.6861 6.70789C36.4281 7.26753 36.1788 7.88894 35.9452 8.55475C35.8034 8.95855 35.6726 9.3691 35.5543 9.78233C35.3573 10.4697 34.9522 11.0807 34.3936 11.5327C34.1936 11.6946 33.9831 11.8472 33.7643 11.9889C33.6675 12.0517 33.5701 12.1099 33.4724 12.1631C33.4415 12.18 33.4092 12.143 33.4306 12.1153C33.5993 11.8951 33.7654 11.6573 33.9273 11.403C34.2611 10.8797 34.5652 10.2528 34.8312 9.54003C35.1125 8.78531 35.289 8.09696 35.3558 7.49379C35.423 6.88326 35.3996 6.35049 35.2859 5.91028C35.1683 5.45583 34.9627 5.09829 34.6743 4.84756C34.3759 4.58856 34.0069 4.45718 33.5781 4.45718C33.0724 4.45718 32.6076 4.58971 32.1967 4.85113C31.916 5.02964 31.6559 5.22911 31.4203 5.44662C31.4007 5.46466 31.3846 5.46249 31.3703 5.44019C31.318 5.35762 31.2474 5.27981 31.1588 5.20705C30.9594 5.04394 30.7196 4.93467 30.4454 4.8824C30.1704 4.83068 29.891 4.84941 29.6185 4.938C29.327 5.03279 29.1096 5.22879 28.9722 5.52069C28.7086 6.08301 28.4303 6.73934 28.1449 7.4714C27.8601 8.20239 27.5825 8.9665 27.3193 9.7426L27.2323 10.0009C27.0102 10.6627 26.5929 11.2436 26.0343 11.6684C25.8871 11.7805 25.7347 11.8875 25.5782 11.9889C25.4814 12.0517 25.3839 12.1099 25.2861 12.1632C25.2551 12.18 25.2229 12.1431 25.2443 12.1153C25.4131 11.8953 25.579 11.6575 25.7409 11.4031C26.0746 10.8801 26.3788 10.2533 26.6452 9.54003C26.9263 8.78526 27.1028 8.09687 27.1695 7.49379C27.2369 6.88298 27.2135 6.35021 27.0998 5.91028C26.9824 5.45601 26.7767 5.09848 26.4882 4.84756C26.1897 4.58851 25.8207 4.45718 25.3922 4.45718C24.8861 4.45718 24.4214 4.58971 24.0106 4.85103C23.7297 5.02964 23.4696 5.22911 23.2341 5.44649C23.2146 5.46448 23.1985 5.46244 23.1844 5.44001C23.1319 5.35757 23.0613 5.27977 22.9725 5.20714C22.7734 5.04398 22.5334 4.93476 22.259 4.8824C21.984 4.83059 21.7043 4.84941 21.4324 4.938C21.1413 5.0326 20.9237 5.22856 20.7858 5.52078C20.5222 6.08399 20.2438 6.74027 19.9588 7.47144C19.6913 8.1584 19.4311 8.87135 19.1844 9.59295C18.9982 10.1376 18.7194 10.5751 18.3033 10.9759C18.1958 11.0794 18.0911 11.1731 17.9899 11.256C17.8075 11.4059 17.6895 11.4374 17.6227 11.4374C17.5759 11.4374 17.4888 11.4374 17.4693 11.2093C17.4487 10.9712 17.4844 10.661 17.5753 10.287C17.6681 9.90349 17.8028 9.47748 17.9756 9.02104C18.1496 8.56136 18.3263 8.11773 18.5004 7.70265C18.6761 7.28414 18.8343 6.91934 18.9704 6.61851C19.1097 6.31098 19.1931 6.11988 19.225 6.03481C19.3349 5.78645 19.2949 5.54159 19.1099 5.32644C18.9394 5.12891 18.7082 4.99051 18.4219 4.91515C18.1425 4.84183 17.847 4.83776 17.5456 4.90312C17.2229 4.97334 16.9647 5.16259 16.7787 5.46485C16.7415 5.52471 16.7027 5.59072 16.6616 5.664C16.647 5.69018 16.6075 5.6843 16.6012 5.65507C16.5658 5.48997 16.5087 5.33394 16.4306 5.18891C16.3135 4.97279 16.1403 4.79548 15.9157 4.66174C15.6875 4.52601 15.3979 4.45718 15.055 4.45718C14.2463 4.45718 13.4262 4.82679 12.6174 5.5558C11.8235 6.27171 11.1654 7.41367 10.6609 8.95105C10.4241 9.69236 10.2853 10.3775 10.2481 10.9877C10.2106 11.6052 10.2609 12.1382 10.3974 12.5715C10.5381 13.0182 10.7627 13.371 11.0654 13.6196C11.3774 13.8766 11.7524 14.0069 12.1798 14.0069C12.4961 14.0069 12.7978 13.9529 13.0767 13.8462C13.3469 13.7428 13.5975 13.6098 13.8214 13.4513C13.9937 13.3293 14.1541 13.1912 14.2998 13.0395C14.4037 12.9313 14.5867 12.9751 14.6295 13.1181C14.6774 13.2784 14.7442 13.4211 14.8295 13.5452C15.0408 13.8515 15.3752 14.0069 15.8232 14.0069C16.3196 14.0069 16.8212 13.8226 17.3138 13.459C17.5435 13.2897 17.768 13.1051 17.9854 12.9065C18.0343 12.8619 18.1113 12.9097 18.0921 12.9727C17.9651 13.3908 17.8512 13.7783 17.7486 14.1418C17.5755 14.7528 17.4347 15.2791 17.3301 15.7061C17.1901 16.2789 17.172 16.4346 17.172 16.5064C17.172 16.8575 17.2821 17.1568 17.4995 17.3963C17.7095 17.6265 17.9528 17.7917 18.2235 17.8873C18.4015 17.9499 18.5754 17.9816 18.7398 17.9816C18.8309 17.9816 18.9207 17.9719 19.0068 17.9526C19.2008 17.9091 19.447 17.781 19.5187 17.4178L19.5199 17.4107C19.5485 17.2195 19.6028 16.9602 19.6817 16.6403C19.7635 16.3082 19.863 15.9303 19.9773 15.5169C20.0902 15.1057 20.2192 14.6476 20.3716 14.1166C20.442 13.8711 20.5175 13.6139 20.5978 13.3467C20.6142 13.2924 20.6883 13.2837 20.7169 13.3328C20.7526 13.3939 20.7924 13.4536 20.8361 13.5115C21.0831 13.8393 21.4771 14.006 22.0073 14.0069C22.1138 14.0116 22.2207 14.0141 22.3252 14.0141H22.3253C23.105 14.0141 23.8372 13.8816 24.5016 13.6202C25.1364 13.3709 25.718 13.0661 26.2361 12.7133C26.2869 12.6786 26.3534 12.7268 26.3356 12.7854C26.1868 13.2706 26.0526 13.7248 25.9347 14.1418C25.7607 14.7572 25.6198 15.2834 25.516 15.7061C25.3762 16.2799 25.3581 16.4352 25.3581 16.5064C25.3581 16.8574 25.4682 17.1566 25.6857 17.3963C25.8956 17.6266 26.1391 17.7918 26.4097 17.8873C26.5879 17.9499 26.7614 17.9816 26.9259 17.9816C27.0168 17.9816 27.1068 17.9719 27.1933 17.9526C27.3872 17.9091 27.6333 17.781 27.705 17.4178L27.7064 17.4107C27.7347 17.2187 27.7893 16.9595 27.8681 16.6402C27.9497 16.3083 28.049 15.9305 28.1634 15.5169C28.2769 15.1039 28.406 14.6459 28.5579 14.1166C28.6284 13.8706 28.7039 13.6134 28.784 13.3466C28.8003 13.2922 28.8744 13.2835 28.9031 13.3326C28.9388 13.3938 28.9787 13.4535 29.0226 13.5115C29.2692 13.8393 29.6633 14.006 30.1936 14.0069C30.3001 14.0116 30.407 14.0141 30.5115 14.0141H30.5116C31.2911 14.0141 32.0234 13.8816 32.6879 13.6202C33.4317 13.3282 34.1038 12.9604 34.6859 12.5271C34.7849 12.4534 34.8813 12.3788 34.9752 12.3035C35.0182 12.269 35.0824 12.3 35.0815 12.3548C35.0812 12.3687 35.0811 12.3826 35.081 12.3963C35.0809 12.407 35.0809 12.4176 35.0809 12.4282C35.0809 12.8891 35.1787 13.2649 35.3717 13.5452C35.583 13.8515 35.9174 14.0069 36.3654 14.0069C36.861 14.0069 37.3658 13.8229 37.8658 13.4599C38.3412 13.115 38.79 12.7074 39.2 12.248C39.6043 11.7953 39.9596 11.3441 40.2563 10.9069C40.5562 10.4645 40.7581 10.1619 40.8733 9.98194C40.9655 9.83831 40.968 9.67871 40.8808 9.54419ZM4.33404 12.0097C4.40395 11.7302 4.48346 11.4371 4.57132 11.1354C4.59118 11.0672 4.69211 11.076 4.69942 11.1465C4.7235 11.3781 4.75382 11.6062 4.78957 11.8258C4.82977 12.0744 4.87827 12.3208 4.93398 12.5582C4.99002 12.7959 5.0536 13.027 5.12272 13.2451C5.19314 13.4671 5.27125 13.6821 5.35442 13.8841C5.43862 14.0887 5.53088 14.287 5.62885 14.4734C5.7266 14.6601 5.83296 14.8407 5.94523 15.0104C6.05754 15.1802 6.17824 15.3422 6.30396 15.492C6.43164 15.644 6.56635 15.7863 6.705 15.9149C6.82021 16.0219 6.94129 16.1224 7.06466 16.2141C7.21751 16.3274 7.37818 16.4298 7.54208 16.5182C7.70884 16.6083 7.883 16.6861 8.05904 16.7492C8.1505 16.7821 8.24201 16.811 8.33104 16.8352C8.4232 16.8607 8.51729 16.8828 8.6111 16.9009C8.79997 16.9376 8.99518 16.9605 9.19113 16.9688C9.2482 16.9712 9.30522 16.9724 9.36234 16.9724C9.50356 16.9724 9.6483 16.965 9.79271 16.9505C9.99569 16.9299 10.2031 16.8945 10.4093 16.8453C10.6156 16.7962 10.8272 16.732 11.038 16.6541C11.2491 16.5757 11.4637 16.4824 11.6757 16.3767C11.7856 16.3217 11.894 16.2641 11.9975 16.2059C12.2036 16.0899 12.4125 15.9598 12.6185 15.8191C12.8347 15.6714 13.0564 15.5061 13.2771 15.3278C13.3684 15.2538 13.4603 15.177 13.5518 15.0982C13.7385 14.9374 13.7706 14.6635 13.6262 14.4651C13.4818 14.2667 13.208 14.2086 12.9932 14.3306C12.927 14.3682 12.8607 14.404 12.7948 14.4378C12.6228 14.5264 12.4482 14.6038 12.2757 14.668C12.1073 14.7307 11.9379 14.7818 11.772 14.8202C11.6092 14.8578 11.4461 14.8839 11.2864 14.8976C11.1293 14.9114 10.9719 14.9135 10.8205 14.9042C10.6692 14.8946 10.5188 14.8736 10.3737 14.8415C10.2284 14.8094 10.0839 14.7653 9.94448 14.7104C9.80307 14.6546 9.66414 14.5869 9.53182 14.5091C9.39575 14.429 9.26286 14.3366 9.13663 14.2343C9.00717 14.1294 8.88141 14.0113 8.76254 13.8834C8.64029 13.7518 8.52306 13.6073 8.41407 13.4539C8.30185 13.2964 8.19506 13.125 8.09667 12.9446C7.99621 12.7606 7.90184 12.5623 7.81637 12.355C7.77355 12.2517 7.73161 12.1425 7.69174 12.0304C7.62914 11.8551 7.57089 11.6698 7.51865 11.4798C7.45132 11.2341 7.39219 10.9745 7.34294 10.708C7.2929 10.437 7.25181 10.1509 7.22088 9.85766C7.19389 9.60194 7.1744 9.33728 7.1625 9.06875C7.1609 9.03297 7.17346 9.01527 7.20823 9.00448C7.75532 8.83452 8.28254 8.62358 8.77828 8.37621C9.37935 8.07591 9.91187 7.71783 10.3611 7.31213C10.8147 6.90306 11.1789 6.43681 11.4439 5.92617C11.7109 5.41091 11.8463 4.84175 11.8463 4.23469C11.8463 3.67121 11.6922 3.16789 11.3878 2.73872C11.089 2.31683 10.6929 1.95816 10.2104 1.67256C9.73381 1.39029 9.18518 1.17561 8.5797 1.03443C7.97924 0.894629 7.36318 0.823761 6.74867 0.823761C5.66976 0.823761 4.69497 0.99994 3.85156 1.34746C3.01345 1.6929 2.30339 2.11465 1.74103 2.60063C1.17782 3.0873 0.743042 3.60237 0.448646 4.13141C0.1468 4.67433 0 5.12361 0 5.50492C0 5.94175 0.103786 6.29595 0.308593 6.55748C0.512042 6.81757 0.739668 6.99514 0.985475 7.08537C1.24098 7.17929 1.4896 7.18976 1.7154 7.11741C1.97292 7.0352 2.11475 6.84422 2.11475 6.57966C2.11475 6.21084 2.22552 5.76732 2.44359 5.26134C2.66376 4.75097 2.97723 4.25881 3.37504 3.79856C3.77045 3.34052 4.25457 2.94593 4.81412 2.62548C5.36 2.31254 5.98112 2.15389 6.66053 2.15389C7.29838 2.15389 7.80372 2.30328 8.1624 2.59804C8.51673 2.8894 8.69647 3.36109 8.69647 3.99987C8.69647 4.49668 8.5939 4.96837 8.39162 5.40192C8.18719 5.84027 7.91529 6.24357 7.58364 6.60073C7.25087 6.95876 6.87044 7.27423 6.45268 7.53824C6.19792 7.6993 5.93698 7.8403 5.67299 7.95999C5.62028 7.98383 5.56443 7.93357 5.58392 7.87986C5.78179 7.33329 5.99189 6.77156 6.21081 6.20364C6.48126 5.50248 6.78414 4.78223 7.1125 4.06018C7.24108 3.77716 7.07619 3.44887 6.76961 3.37773C6.26061 3.25951 5.65964 3.24005 4.96683 3.31922C4.66081 3.35417 4.39551 3.54381 4.26703 3.81926C3.8748 4.66013 3.51368 5.5129 3.19117 6.36023C2.81623 7.34625 2.48932 8.27256 2.21971 9.11361C1.94794 9.9609 1.73578 10.7113 1.58912 11.3438C1.43829 11.9923 1.36496 12.4477 1.36496 12.7358C1.36496 13.0897 1.4888 13.3904 1.73278 13.6294C1.96533 13.8571 2.23142 14.0202 2.52366 14.114C2.82035 14.2089 3.10814 14.2305 3.37602 14.1784C3.6871 14.1182 3.88192 13.9334 3.94012 13.6404C3.96861 13.4753 4.01949 13.2492 4.0917 12.9681C4.16489 12.6813 4.24599 12.3616 4.33404 12.0097Z" fill="black"/>
<path fill-rule="evenodd" clip-rule="evenodd" d="M79.1803 10.6847L79.1804 10.6849L79.1826 10.6875C79.3326 10.8701 79.4813 11.0511 79.63 11.2326C79.7981 11.4388 79.9663 11.6439 80.1345 11.8491C80.3027 12.0542 80.4708 12.2593 80.639 12.4655L80.6726 12.5062L80.6727 12.5062C80.7157 12.5581 80.7592 12.6105 80.7949 12.6655C81.0902 13.1146 81 13.6983 80.5857 14.0331C80.1673 14.3678 79.5807 14.3352 79.1993 13.9515C79.1353 13.8877 79.0795 13.8185 79.023 13.7483L79.023 13.7483L78.986 13.7024C78.6742 13.3247 78.3634 12.947 78.0526 12.5693C77.7419 12.1918 77.4313 11.8143 77.1196 11.4367C77.065 11.37 77.0088 11.3032 76.9557 11.2401C76.9211 11.199 76.8878 11.1594 76.8571 11.1224C76.7641 11.1053 76.7174 11.1485 76.6733 11.1894C76.6648 11.1973 76.6565 11.205 76.6479 11.2122C76.5645 11.2816 76.482 11.3524 76.3995 11.4231L76.3995 11.4231C76.2345 11.5647 76.0695 11.7062 75.8973 11.8368C75.725 11.9674 75.6676 12.1226 75.6758 12.3308C75.6881 12.5961 75.684 12.8615 75.6758 13.1268L75.6745 13.1683C75.6712 13.2744 75.6679 13.385 75.6389 13.4861C75.5117 13.9678 75.0441 14.274 74.5314 14.2209C74.0391 14.1678 73.6618 13.7882 73.6207 13.2942C73.6146 13.2238 73.6154 13.1512 73.6161 13.078C73.6164 13.0535 73.6166 13.0289 73.6166 13.0044V4.07629V4.07616C73.6166 3.97823 73.6166 3.88438 73.6207 3.78645C73.6618 3.23533 74.1007 2.83118 74.6585 2.83527C75.1959 2.83935 75.6307 3.23942 75.6717 3.7742C75.6778 3.86311 75.6771 3.95432 75.6763 4.04437C75.676 4.07423 75.6758 4.10397 75.6758 4.13345V8.90569V9.24861C75.7832 9.28871 75.8357 9.2358 75.8827 9.18842C75.8931 9.17792 75.9033 9.16768 75.9137 9.1588C76.5815 8.59186 77.2475 8.02302 77.9141 7.45357L77.9185 7.44986C78.2248 7.18815 78.5314 6.92632 78.8383 6.66449C78.8708 6.63621 78.9031 6.60778 78.9354 6.57934L78.9365 6.57842C79.067 6.46346 79.1976 6.34851 79.3387 6.24401C79.63 6.02765 79.9499 5.96641 80.2986 6.0848C81 6.32158 81.2297 7.18703 80.7375 7.73815C80.6603 7.8259 80.5667 7.90383 80.4743 7.98074L80.4421 8.00758C80.1428 8.26057 79.8425 8.51355 79.5422 8.76654C79.2416 9.01976 78.941 9.27298 78.6414 9.52621C78.5717 9.5956 78.502 9.66501 78.4117 9.74665C78.6755 10.0703 78.9297 10.3797 79.1803 10.6847ZM47.2442 13.3396C47.2541 13.2975 47.2638 13.2563 47.2742 13.2166C47.2823 13.2166 47.2894 13.2163 47.2956 13.216C47.3115 13.2153 47.3216 13.2148 47.3275 13.2207C47.3624 13.2533 47.3972 13.287 47.4321 13.3207C47.467 13.3544 47.5018 13.388 47.5367 13.4207C47.9018 13.7718 48.3325 14.0126 48.8247 14.131C49.0708 14.1923 49.321 14.2331 49.5753 14.2494C50.3424 14.3025 51.0766 14.1596 51.7329 13.7514C52.7338 13.1268 53.3819 12.2368 53.6403 11.0856C53.792 10.4079 53.7838 9.72211 53.6485 9.04036C53.3654 7.63196 52.0693 5.99903 50.1783 5.85206C49.1323 5.77042 48.1807 5.99494 47.426 6.78283C47.4192 6.78955 47.4127 6.79735 47.4061 6.8054L47.4061 6.80541L47.4061 6.80541C47.3762 6.8414 47.3423 6.88226 47.2619 6.85223C47.2606 6.82607 47.259 6.79914 47.2573 6.77169L47.2573 6.77166C47.2535 6.70917 47.2496 6.64394 47.2496 6.57872V4.08441C47.2496 4.05986 47.2498 4.0353 47.2501 4.01081C47.2509 3.93758 47.2516 3.86493 47.2455 3.79457C47.1963 3.2557 46.7697 2.85155 46.2364 2.84338C45.6909 2.83522 45.2602 3.20263 45.1863 3.74558C45.174 3.8558 45.174 3.96193 45.174 4.07215V4.07217V13.037L45.1738 13.0901C45.1732 13.1796 45.1727 13.2709 45.1863 13.3595C45.252 13.8534 45.6376 14.2208 46.1298 14.2617C46.5153 14.2943 47.0445 14.0739 47.2004 13.5146C47.2169 13.4557 47.2307 13.3969 47.2442 13.3396ZM47.2569 10.1461C47.2573 10.1179 47.2578 10.0897 47.2578 10.0609C47.2373 9.60372 47.3357 9.17508 47.5859 8.79542C47.9961 8.16674 48.5909 7.84424 49.3415 7.80342C50.3588 7.74626 51.2776 8.35861 51.5688 9.30571C51.737 9.83642 51.737 10.3794 51.5319 10.8978C51.2202 11.6898 50.6336 12.1593 49.7722 12.2654C49.4564 12.3021 49.1446 12.294 48.837 12.2123C47.951 11.9837 47.3357 11.2407 47.2578 10.3141C47.2551 10.2571 47.256 10.2019 47.2569 10.1461ZM61.2152 6.74164C61.2048 6.7905 61.1937 6.84284 61.1794 6.90135L61.1398 6.86578L61.1398 6.86578C61.0712 6.80418 61.0119 6.75097 60.9497 6.68906C60.6133 6.36656 60.2237 6.1257 59.7766 5.99099C59.0013 5.75829 58.222 5.74196 57.4549 6.00323C56.2818 6.39922 55.5024 7.21568 55.0225 8.33424C54.7436 8.97925 54.6821 9.661 54.719 10.355C54.7723 11.2858 55.0799 12.1226 55.6788 12.8411C56.2367 13.5106 56.9258 13.9801 57.7913 14.1597C58.2343 14.2536 58.6773 14.27 59.1285 14.2128C59.8545 14.1271 60.478 13.8495 60.9948 13.3351C61.0228 13.3073 61.0521 13.2808 61.0857 13.2503C61.1112 13.2272 61.1393 13.2018 61.1712 13.1718C61.1884 13.2334 61.202 13.2893 61.2147 13.3415C61.2323 13.4139 61.2482 13.4793 61.2696 13.5433C61.4091 13.9883 61.8357 14.2822 62.291 14.2618C62.7545 14.2414 63.1483 13.9189 63.2508 13.4657C63.2837 13.3269 63.2919 13.18 63.2919 13.0371V7.03606C63.2919 6.91768 63.2878 6.7952 63.2673 6.67682C63.1811 6.19102 62.7996 5.8481 62.3279 5.81545C61.8316 5.78279 61.405 6.0808 61.2573 6.56251C61.2411 6.62024 61.2288 6.67796 61.2152 6.7416L61.2152 6.74163L61.2152 6.74164ZM60.6708 8.53428C61.0645 8.97109 61.2204 9.48546 61.2122 10.0611C61.2204 10.5836 61.081 11.0612 60.7446 11.4776C60.3713 11.9389 59.8914 12.2125 59.2926 12.2696C58.9685 12.3023 58.6404 12.2941 58.3245 12.2002C57.537 11.9675 57.057 11.4368 56.8519 10.6571C56.7453 10.2529 56.7535 9.84471 56.8478 9.44056C57.057 8.55469 57.8323 7.91376 58.6403 7.82395C59.4402 7.73414 60.1252 7.92601 60.6708 8.53428ZM66.8591 6.81093C66.8449 6.8257 66.8291 6.84206 66.8115 6.86049C66.7935 6.78683 66.7794 6.72676 66.7668 6.67319C66.7536 6.6169 66.7421 6.56777 66.7295 6.51757C66.5818 6.07668 66.1675 5.79092 65.6999 5.81133C65.2528 5.82766 64.8672 6.12975 64.7565 6.57472C64.7196 6.71352 64.7113 6.86049 64.7113 7.00337V13.0738C64.7113 13.0923 64.7111 13.1105 64.7108 13.1287C64.7101 13.1825 64.7093 13.2352 64.7154 13.2902C64.7606 13.829 65.1831 14.2373 65.7122 14.2577C66.1224 14.274 66.6556 14.0127 66.7623 13.3963C66.7828 13.2657 66.7869 13.1309 66.7869 13.0003V9.85692C66.7869 9.70179 66.791 9.54258 66.7992 9.38745C66.8156 9.1221 66.8853 8.86491 67.0002 8.62405C67.193 8.2199 67.5047 7.95863 67.9354 7.828C68.2184 7.74227 68.5056 7.73819 68.7968 7.76268C69.4613 7.82392 69.9412 8.25256 70.0684 8.90982C70.1094 9.1221 70.1258 9.33846 70.1258 9.55482C70.132 10.4124 70.1312 11.2723 70.1304 12.131C70.1302 12.4169 70.1299 12.7026 70.1299 12.9881C70.1299 13.0157 70.1297 13.0433 70.1294 13.0709C70.1286 13.1533 70.1279 13.2351 70.134 13.3146C70.1709 13.8413 70.6098 14.2536 71.1431 14.2618C71.6722 14.2699 72.1316 13.8698 72.1808 13.3432C72.1907 13.2386 72.19 13.1314 72.1894 13.0258C72.1892 12.9995 72.189 12.9733 72.189 12.9472V9.33438C72.189 9.167 72.1849 8.99554 72.1808 8.82817C72.1726 8.4975 72.1193 8.17908 72.0127 7.86882C71.6722 6.86457 71.0036 6.1869 69.9535 5.92155C69.3916 5.77867 68.8255 5.79908 68.2636 5.9338C67.7549 6.05218 67.3201 6.29304 66.9715 6.68903C66.9425 6.72428 66.911 6.75701 66.8591 6.81093Z" fill="black"/>
</svg>
